# xmcd CD database file
#
# Track frame offsets:
#	180
#	30960
#	55420
#	82388
#	105771
#	128927
#	147985
#	161124
#	183079
#	201251
#
# Disc length: 2964 seconds
#
# Revision: 3
# Processed by: cddbd v1.5.2PL0 Copyright (c) Steve Scherf et al.
# Submitted via: CDex 1.70beta2
#
DISCID=860b920a
DTITLE=Various Artist - Into the Groove - vol 2
DYEAR=1997
DGENRE=Dance
TTITLE0=Neneh Cherry - Feel It
TTITLE1=US3 - I'm Thinking About Your Body
TTITLE2=The Roots - What they do
TTITLE3=Fabe - Lettre au President
TTITLE4=Tha Mexakinz - Problems
TTITLE5=Westside Connection - The gangsta, the killa, and the dope dealer
TTITLE6=Dazzie Dee - Tha ultimate drive-by
TTITLE7=Spearhead - Why oh why
TTITLE8=702 - Steelo remix
TTITLE9=The Mighty Bop - Je n pai oas le choix
EXTD=YEAR: 1997
EXTT0=
EXTT1=
EXTT2=
EXTT3=
EXTT4=
EXTT5=
EXTT6=
EXTT7=
EXTT8=
EXTT9=
PLAYORDER=
